<svg id="Layer_1-2" xmlns="http://www.w3.org/2000/svg" width="260" height="124.538" viewBox="0 0 260 124.538">
  <g id="Group_15" data-name="Group 15">
    <path id="Path_3" data-name="Path 3" d="M124.083,9.16V69.731c0,33.869-27.7,62.289-61.572,62.6A62.191,62.191,0,0,1,.228,78.373H17.3a45.266,45.266,0,0,0,45.763,37.1c24.635-.6,44.17-21.021,44.17-45.663v-43.8H70.581L36.43,60.158V59.93H0V43.083H29.6L63.749,9.16Z" transform="translate(0 -7.794)" fill="#fff"/>
    <path id="Path_4" data-name="Path 4" d="M964.751,106.779a58.77,58.77,0,0,0,8.879.911,45.628,45.628,0,0,0,44.625-37.112h17.075a62.314,62.314,0,1,1-3.642-30.737Zm-16.62-7.058L1011.2,36.655A45.934,45.934,0,0,0,973.63,16.847a45.283,45.283,0,0,0-25.5,82.874Z" transform="translate(-775.33)" fill="#fff"/>
  </g>
</svg>
