<svg xmlns="http://www.w3.org/2000/svg" width="262.136" height="321.916" viewBox="0 0 262.136 321.916">
  <g id="Group_25" data-name="Group 25" transform="translate(-84 -5894.058)">
    <g id="Group_24" data-name="Group 24">
      <g id="Layer_1-2" transform="translate(87.565 6141.686)">
        <path id="Path_9" data-name="Path 9" d="M209.309,103.814v-.022l-.778-2.721-.731-3.84v-.1l-.022-.1-.122-2.987.04-.425v-.1l.022-.1.022-.223v-.1l.022-.1.022-.205.285-1.321.411-1.058a.51.51,0,0,0,0-.446.587.587,0,0,0-.306-.324l-.249-.04-1.952-.022-2.237-4.733-2.986-4.812c-.083-.108-.367-.479-.854-1.116-.108-.133-.429-.5-.958-1.1a13.484,13.484,0,0,0-.994-1.015c-.393-.367-.76-.684-1.1-.954-.367-.3-.756-.583-1.16-.853l-.63-.385-.083-.061-1.909-.893a7.922,7.922,0,0,0-1.4-.428.668.668,0,0,0-.508.083.617.617,0,0,0-.285.407.667.667,0,0,0,.2.651h.022l3.026,2.822.1.083.043.061.061.04,3.31,4.063,1.055,1.605.061.122.569.954,1.869,3.84.674,1.828.043.061.223.731.1.245,1.077,4.326.04.122.162.954.022.083v.061l.612,5.687.061,3.574-1.361-5.564-2.687-6.824-3.008-5.363c-.7-1.058-1.171-1.735-1.383-2.03L193.9,83.414l-3.472-3.9-1.768-1.706-3.865-3.29-.058-.04-.061-.061-.98-.752a.763.763,0,0,0-.591-.162.864.864,0,0,0-.547.324.76.76,0,0,0-.162.486.782.782,0,0,0,.162.486l.022.022,3.782,5.158,5.2,8.39,4.477,9.426,2.583,7.7.014.144.389,1.443-2.4-1.605-3.5-1.522-1.383-.428-.1-.022-.119-.04-2.806-.608-2.889-.324-3.3-2.782-2.172-1.461L176.9,96.5v-.061l-1.869-3.617-1.952-2.761c-.191-.23-.331-.407-.429-.529l-1.826-1.99a.158.158,0,0,0-.263,0,.173.173,0,0,0-.04.223l.749,1.422,1.812,4.427.022.122.367,1.238L171.3,94.2l-3.026-.59-2.053-.1-.04.205h-.036a.08.08,0,0,1,.036.022l-.036.162.4.022c-.025.014-.022.022.022.022l.083.061,7.906,4.348.079.061v.04l-.014.061v.04l.014.061-.014,2.275-.061.446v.122l-.144.713-.022.061-.022.04-.014.083-.27.691-.036.083-.04.061-.022.04-2.889.284a2.106,2.106,0,0,0-.346.022l-7.866-.061c-.76-.025-1.329-.054-1.707-.083l-5.853-.245,5.936-7.72a.4.4,0,0,0,.061-.263.388.388,0,0,0-.144-.245.368.368,0,0,0-.346-.04h-.022l-1.138.529-2.925,1.89-2.4,2.192c-.162.148-.393.385-.688.709l-3.213,4.164v-1l.022-.122v-.263l.263-2.134.04-.122.043-.263.591-2.476v-.022a.489.489,0,0,0-.061-.446.554.554,0,0,0-.367-.284.541.541,0,0,0-.666.263,15.947,15.947,0,0,0-.98,1.868,18.406,18.406,0,0,0-.771,1.951l-.749,2.476-1.059,5.849-.306,3.311-.022.122-.162,11.132.162,1.544c.108.662.216,1.238.328,1.728l-8.27-5.91-.122-.122-.061-.04-.2-.223-.122-.1-.079-.122-.205-.245-.605-1.055-.122-.306-.04-.061-.022-.083-.061-.144-.364-1.238-.122-.651a12.3,12.3,0,0,1-.18-1.321l-.083-14.929,2.013-.529c.335-.068.857-.144,1.563-.223l2.359-.184,3.861.223.083.022c.151.029.223-.025.223-.162a.208.208,0,0,0-.119-.223l-.511-.162-.119-.061-3.234-.936-3.433-.608h-.144l-.4-.061-1.992-.04.749-3.736,2.723-16.491a.432.432,0,0,0-.079-.367.612.612,0,0,0-.346-.2.457.457,0,0,0-.547.346L136.927,82.7l-1.75,4.063-.058.083-1.1,2.113L134,88.942l-.079-.022-.083-.061-.162-.083-.022-.022h-.022l-.04-.04-.04-.022-.022-.022h-.022l-.2-.2-.083-.061-.022-.04-.1-.1-.122-.162-.04-.083-.043-.04-.022-.061-.18-.346-.04-.1-.022-.083-.079-.2-.022-.04v-.061l-.04-.083-.122-.407c0-.04-.011-.047-.04-.022-.036,0-.047.014-.022.04a1.446,1.446,0,0,0,.061.407l.022.1v.061l.022.04.022.1v1.807l-.022.083v.446l-.022.184v.083l-.022.083V90.2l-.022.083v.083l-.058.529-.04.162-.083.507-.022.04v.04l-.2.731-.122.306-.022.1v.04l-.18,1.22-.043.122-.022.144-.04.122-.022.144-.18.63-.022.04-.061.184-.04.061-.058.162-.04.04-.022.061-.022.04-.1.144-.022.04-.162.184-.122.083-.043.022-4.452-1.238.529-.875.061-.083.245-.446c.068-.108.05-.191-.058-.245s-.166-.032-.205.022L125.4,94.632l-1.117,1.382.569-3.149,1.117-9.873-.083-5a11.361,11.361,0,0,0-.162-1.238.388.388,0,0,0-.144-.245.357.357,0,0,0-.263-.061.334.334,0,0,0-.306.284l-1.563,7.292.022-.04-1.2,4.081-1.117,6.277L120.87,98.6l.022,2.091-.486.713-.022.022-.875.713c-.31.27-.591.536-.832.792a11.33,11.33,0,0,0-.778.853l-.688.936a10.037,10.037,0,0,0-.569,1.015,8.573,8.573,0,0,0-.447,1.1,6.089,6.089,0,0,0-.306,1.137l-.043.144-.1.752V109l-.022.061v.385l-.022.14.04.752a10.114,10.114,0,0,0,.144,1.177l.285,1.137c.068.256.2.63.382,1.116l1.019,2.113,1.279,1.951.45.468.058.083.083.061,4.207,3.718.083.04,5.061,3.372,5.59,2.843,5.831,2.253-.022-.022.367.184.061.04.061.022.382.184.122.083.245.122.465.306.122.061,1.869,1.461.407.385-1.016-.792-1.019-.569-.612-.245-1.016-.263h.061l-.328-.1-2.867-1.137-1.812-.914h-.014l-.022-.022a10.883,10.883,0,0,0-1.2-.468l-.652-.162-.367-.022-.4.061a1.3,1.3,0,0,0-.429.162,1.409,1.409,0,0,0-.342.346,1.188,1.188,0,0,0-.187.428,1.249,1.249,0,0,0-.061.385,2.08,2.08,0,0,0,0,.367l.043.346a.824.824,0,0,0,.061.324l.061.306a.51.51,0,0,0,.223.3.788.788,0,0,0,.306.061l.022.14.346,1v.022h.022l1.362,1.846-.022-.061,2.68,5.748.022.061v.022l.022.022v.022l.022.022.2.367,1.768,2.458.389.407.083.1.911.853,1.243.893,1.34.713,1.567.529.119.022.144.04.4.061h.04l-.674.529-.465.507-.306.425-.043.083-.036.022-.27.507-.036.061-.249.569-.321,1.321v.083l-.022.1-.022.306v.022s-.014.029,0,.04l-.061.263v.144l-.061.792.486,1.566.249.547.425.709.083.1.061.1.3.367a.328.328,0,0,1,.043.04l-.1.184-.04.122-.612,1.483-.022.022v.022l-.1.608-.036.122-.022.122-.04.1-.285.936-1.221,2.4-1.16,1.623-.061.1-.321.385-.061.1-.285.367-.263.061-.205.2-.1.083-.756.893-.1.162-.04.04-.447.813-.04.122-.061.122-.285,1.159v.144l-.022.122v.669l.1.669.14.507.061.122.18.468.569.954.022.061.166.2.036.04.27.122.119.04.122.061.2.061h.061l.119.04.122.022-.022.061v.245l.022.184v.083l.083.346.036.083.061.162.04.083.022.083.18.306.061.061.04.083.122.122a1.324,1.324,0,0,0,.223.263l.792.669.162.083.144.1.285.162,1.243.569h-.04l1.34.529.994.184.205.022h.1l.1.022h.569l.162.04.04.022h.04l.022.022.083.022.058.04.04.022.043.04.083.04.04.04.043.022.2.205.061.079.022.022s-.022.007-.022.022a.125.125,0,0,0-.1.061.12.12,0,0,0-.061.1,19.479,19.479,0,0,1-1.257,5.035.113.113,0,0,0,0,.14l.022.022-.328.306-1.34,1.99-.04.1-.061.1-.508,1.1v.022l-.187-.022-.058.022h-.227l-.425.04h-.144l-1.117.162c-.746.122-1.495.263-2.255.425l-9.919,2.519-7.395,1.321h-.144l-.285.04-5.082.367-3.944-.04q-.751-.022-2.255-.14c-.746-.054-1.495-.137-2.255-.245l.043.022-5.143-1h-.1l-8.781-1.116h-.1l-.119-.022-1.75-.122-.1-.022-9.53-.367-.223.022-3.58.022-2.071-.569-4.351-.831-.547-.061-.083-.022h-.1l-2.561-.223a2.71,2.71,0,0,1-.389-.022H65.95c-.486,0-.972.022-1.459.061-.98.068-1.952.169-2.928.306l-.547.061-.18.04-.735.1-4.311.954.04-.022-.223.04-.061.022-3.047.792-.119.04-3.458.691-5.428.691H43.37l-.486.04h-.119l-.061.022h-.061l-2.5.3c-.839.151-1.495.284-1.97.407-.652.162-1.3.346-1.952.547-.558.162-1.185.378-1.887.651q-.9.346-1.851.792c-.569.27-1.163.576-1.79.914-.537.3-1.117.644-1.722,1.037l-.205.14-.119.061-2.99,2.192q-.891.956-1.563,1.767c-.519.651-.983,1.285-1.4,1.908A19.883,19.883,0,0,0,21.51,203.9a22.068,22.068,0,0,0-.98,2.174c-.285.8-.511,1.551-.688,2.253q-.265,1.139-.429,2.336-.119.993-.162,2.375,0,1.037.1,2.357c.094.893.2,1.674.321,2.336q.227,1.236.511,2.275c.119.446.353,1.2.688,2.253.234.691.508,1.414.832,2.174.151.392.461,1.1.936,2.134q.816,1.625,1.055,2.073l1.138,2.03q.513.9,1.181,1.911a.224.224,0,0,1,.04.061.429.429,0,0,0,.285.2.38.38,0,0,0,.18,0v.022l1.055,3.066,1.707,3.675,1.506,2.642.061.083.022.061.022.022v.022h.022l.1.184.061.061v.022l.083.162.043.04.342.731.285.914a5.642,5.642,0,0,1,.122.77l.043.792-.223,1.728-.04.1-.166.612a10.187,10.187,0,0,1-.612,1.623l-.583,1.2-1.65,2.638-6.159,7.375-3.818,4.024-.022-.022h-.043v-.022h-.022l-.022-.022h-.061l-.022.04v.022l.022.022v.043l.022.036v.022l-.223.187.022-.022-.14.061-.144.036-.285.122c-.122.058-.216.094-.285.122l-.263.119-.122.083-.14.061-.875.59-.223.2-.061.04-.285.263-.043.061-.162.162a9.463,9.463,0,0,0-.756.957A7.409,7.409,0,0,0,14,269.625a8.491,8.491,0,0,0-.472,1.1c-.133.392-.259.777-.367,1.159l-.263,1.181c-.1.536-.213,1.339-.321,2.393l.079,6.014.122,1.116L7.236,308.28l-.04.119-1.646,6.443-.04.036-.205.248-.058.058-.061.083-.022.043-.591.612L4.513,316l-.083.061-.058.061-.083.061-.061.061-.083.036-.223.166-.306.162-.058.022-.04.022H3.476l-.083.04H3.372l-.2.1-.18.162-.1.061-1.466,1.361-.328.407-.04.058-.036.04-.45.673-.061.119-.036.061-.022.061-.061.122-.122.32-.043.083-.1.346v.083l-.04.14v.061l-.022.083v.14l-.022.162v.306l.022.166.022.061v.079l.1.367v.04l.014.04.061.2.166.346.04.061.014.036.022.022.061.122.166.245.014.022.022.04.043.061.529.569h.022l2.824,2.07-.043,9.142a.739.739,0,0,0,.511.749l.591.245.1.022,1.75.529,1.466.27,3.152.14a2.589,2.589,0,0,0,.425-.022,2.456,2.456,0,0,0,.407-.022l3.9-.569,1.423-.345a.864.864,0,0,0,.634-1.055l-.061-.162-.022-.022-5.853-11.723,1.542-9.588.043-.14.9-4.164,6.5-22.225-.1.122.122-.223-.022.1,3.638-4.87.285-.306a7.168,7.168,0,0,1,.529-.63l2.972-3.189,4.1-3.513-.1,2.3.263,2.192.122.529c.094.367.245.839.447,1.422a13.258,13.258,0,0,0,.63,1.339l.166.328.1.14.083.166L36,284.8l.058.061v.022l.249.223,11.929,38.187-1.8,1.5-.04.083v.813l.022.1.043.709.245,1.22.119.306.022.079.061.1.043.1.1.18.036.1.122.18.04.04.022.04.079.083.061.079.2.205.043.022.061.036.04.043.18.122.411.18.122.022.036.022.061.022.223.04h.1l.1.022.648-.022.061-.022.022-.022.731-.346.227-.14.71,4.952a.461.461,0,0,0,.166.263h.022a3.682,3.682,0,0,0,.648.367l.45.18,1.138.306.18.022.162.043,1.423.14h.187a2.239,2.239,0,0,0,.364.022l3.339-.18,3.27-.486a.59.59,0,0,0,.367-.223.608.608,0,0,0,.079-.428l-.022-.122h-.022l-.14-.363-2.381-4.308-3.944-5.258.043.14-.14-.263.1.122-7.359-27.85-.508-1.382c-.187-.619-.317-1.091-.382-1.4a11.855,11.855,0,0,1-.285-1.443l-.04-.18v-.083l-.061-.364v-.083l-.022-.1-.061-.993-.022-.083v-.993c.014-.461.058-.939.122-1.443l.328-1.587.162-.507.04-.18.529-1.346.936-1.764,1.279-1.789,1.347-1.5,3.555-2.984,11.5-11.377,4.736-5.384,4.088-5.136,4.409-6.36,5.936,3.578h.022l.061.036,3.234,1.22,6.256,1.789,6.566,1.076,7.178.263,2.478-.1.119-.022h.144l.832-.079h.144l3.375-.511c.854-.119,1.714-.252,2.575-.4l1.221-.18.022.022v.014l.1.306.022.043v.022l.2.673.022.119.043.122.022.119.1.367.612,4.571.529,6.338,1.221,6.9,2.172,7.533.508,1.346-.022.6-.014.1.079,3.516.569,4.384.245,1.1.04.083.367,1.382.083.18.119.389.022.1.223.6.144,1.019v.119l.425,5.77.022.14-.061,16.578L128.574,328c-.411.328-.832.7-1.282,1.116l-.508.508v.022l-.245.263-.346.507-.223.45v.04l-.022.014v.04h-.022V331l-.043.1v.061l-.022.04v.079l-.022.1-.014.464a2.261,2.261,0,0,0,.162.713l.022.079.04.083.022.083.119.223.022.061.043.061.061.119.022.022.306.41a3.651,3.651,0,0,0,.508.446l.061.061.058.04.367.2.022.022h.022l.022.022.083.022.014.022.04.022.49.18.223.979.022.14v.022h.022v.061l.022.022.119.425.187.367-.043-.061.043.1.058.1.022.061.043.04.122.223.162.205.1.079v.022l.04.04a2.638,2.638,0,0,0,.425.263l.447.162.205.04h.061l.036.022h.061l1.833.306h.079l.043.022h.061l.306.04h.083l.079.022.166.022h.162c.3.025.735.05,1.3.083l3.494-.227.547-.1.227-.083h.014l.022-.022.083-.04h.022l.04-.022.04-.043h.022l.04-.036.036-.022.043-.061.04-.04.263-.122.083-.014.04-.022h.04l.058-.022.022-.022h.022l.1-.04.447-.223.529-.41.022-.04.04-.04a2.9,2.9,0,0,0,.508-.648l.166-.367a.051.051,0,0,0,.022-.04v-.022l.022-.022v-.043l.022-.036v-.043l.036-.122V335.5l.022-.04a3.2,3.2,0,0,0,.022-.813l-.162-.731-.328-.813-.1-.187-.022-.014v-.022l-.036-.061-.04-.083-.389-.63-1.181-1.54-.911-.936a7.313,7.313,0,0,0-.778-.63l.022-7.166-.569-21.714.061-.1.18-.4.022-.061.022-.022v-.04l.166-.41.043-.14.058-.122.569-2.393.144-1.281.04-2.721-.166-1.99-.854-4.69-1.585-16.556-.083-9.4.022-.1v-.119l.043-.45.569-2.455-.061.04.083-.144-.022.1.061-.083.04-.083.2-.18.061-.083.18-.18.854-.695.04-.014.04-.04.079-.04.227-.166,1.765-.875,1-.32.04-.022h.058l.367-.1h.429v.144l6.584,32.72.367,1.317a4.882,4.882,0,0,0,.18.673c.285,1,.547,1.872.8,2.617l.285.813.036.166,1.588,4.038a.193.193,0,0,0-.122.205h.022l.022.04h-.022l.022.036,3.047,32.3-.223.306-.367.367-.223.18-.04.04-.061.043h-.014l-.04.036-.043.022-.061.061-.389.328-.058.083h-.022l-.061.061-.346.464-.061.119-.022.022-.014.043v.04l-.022.022v.022l-.022.04-.122.486.022.328.061.306-.022-.043.083.223.18.328.328.345.162.119.1.043.083.061.162.083.083.022.079.04.083.014.083.043.245.061.162.022.083.022v.043l.061.425v.061l.022.083.022.345.083.4a1.249,1.249,0,0,0,.14.428l.04.119.061.122h.014v.022l.022.043.04.036v.022l.04.04.043.061h.022l.022.043.4.328.389.2.569.18.1.022h.022l.022.022h.036l1.916.389.04.022h.079l.083.022.508.04c.3.025.537.036.713.036a1.752,1.752,0,0,0,.342-.022h.285l.083-.014h.144l.547-.083a4.54,4.54,0,0,0,.731-.187l.367-.14.079-.04h.022l.022-.022.205-.1h.022l.058-.014.083-.061.18-.1.083-.061h.411l.875-.079.036-.022h.04l.061-.022h.04l.083-.022h.014l.04-.022h.043l.205-.061.465-.245.223-.2a.968.968,0,0,0,.2-.284l.04-.083a1.2,1.2,0,0,0,.083-.345l.022-.306-.022-.382-.022-.04v-.083h-.022v-.022l-.547-2.17h-.022v-.061l-.4-1.033v-.022l-.533-.914-.058-.061-.083-.14h-.022l-.04-.061-.529-.446-.1-.061-.058-.061h-.022l-.022-.022-.022-.04-.45-.363-.058-.04V328.6l-.04-.022-.1-.1-.061-.04-.04-.058-.058-.043-.043-.061-.061-.061-.04-.061-.061-.058-.119-.187-.061-.058-.022-.043-.306-5.266-2.478-23.477v-.022c-.014-.068-.04-.1-.083-.1l.022-.464q.184-2.446.187-4.736l.1-2.519-.425-5.363V285.8l-.022-.061v.04l-.061-.144.061.1-.508-12.655,1.318-18.687-.022.04.022-.122v.083l1.585-3.538.936-1.479.162-.187.061-.1.04-.04.043-.061.749-.749.187-.122a3,3,0,0,1,.382-.223v-.022l.144-.083,1.826-2.235,2.665-4.247,3.069-6.46.022-.083.04-.083.18-.507.04-.184.061-.162,1.279-5.323v-.1l.04-.162L174,227.9l.022-.1v-.04l.022-.04.061-.529v.04c.321-1.368.7-2.818,1.135-4.348l2.464-7.677.022-.022v-.04l.022-.04.223-.813q.692-2.338,1.2-4.366c.27-1.069.605-2.541,1.016-4.409q.465-2.213.854-4.449c.234-1.407.454-2.9.674-4.47l.854-9.02q.162-2.257.18-4.531.059-2.008.022-4.51l-.223-6.356-.022-.022v-.122l-.306-2.537q-.286-2.073-.778-4.47-.5-2.456-1.055-4.387-.692-2.354-1.423-4.3l.022.022-.061-.184-.036-.284v-.1l-.022-.083v-.1l-.022-.1.022-1.058.058-.385v-.083l.122-.569v-.083l.022-.022.043-.184.792-1.969a.7.7,0,0,0,.771-.022l6.609-4.65,1.217-1.076c.45-.407.839-.777,1.16-1.116l1.117-1.2a13.4,13.4,0,0,0,1.041-1.26,12.368,12.368,0,0,0,.951-1.321q.427-.632.854-1.382l.735-1.461c.245-.569.439-1.076.591-1.522a9.926,9.926,0,0,0,.425-1.584l.263-1.605a15.039,15.039,0,0,0,.043-1.566l-.022.04.022-.083v.04l.674-1.076v-.04l.04-.547v-.04l.022-.061.036-.59a1.727,1.727,0,0,0-.079-.508l-.144-.263a1.027,1.027,0,0,0-.245-.245l-.162-.083-.389-.079h-.2a4.319,4.319,0,0,0-.814.122l-.854.3-.227.1-.119.04h-.022v.022h-.04l-.04.04-7.539,4.02-2.5,1.584-3.966,2.865a.937.937,0,0,0-.205.162l-.058.04h-.022l-3.966,3.556-1.019-.04.389-.446,5.284-5.118,1.264-1.037q1.724-1.339,2.845-2.073l1.952-1.238,4.311-2.235.18-.061.389-.184h.036l4.762-2.091,2.089-1.159a29.292,29.292,0,0,0,3.011-1.99,20.552,20.552,0,0,0,2.438-2.174l.936-1.116,1.235-2.113.547-1.684.1-.669c.04-.014.083-.029.119-.04a.312.312,0,0,0,.227-.367l-.043-.407.465-.792,1.181-2.66.875-2.761.915-4.265a.145.145,0,0,0,0-.144Zm-87.733,3.513-.036.083-.411,1.645-.022-.022-.1-.324v-.061l-.022-.14v-.446l.022-.083v-.061l.022-.162.04-.144.022-.162.083-.263.508-.367.083-.083-.187.59Zm2.972-7.6.14-.63,1.387-4,.014.04.022.022.022.04.9,1.22.083.083.63.752.079.083.061.083.429.446.14.122.223.245.285.245.043.04.04.022.04.04-1.812.324-2.456.713-.263.122Zm.367,5.2c.4-.216.8-.428,1.2-.63l-1.2.651Zm5.63,11.373c-.205.094-.429.2-.674.306l-.223.083-.1.022-.119.04-.328.061-.061.022h-.061l-.1.022h-.328l-.429-.061-.382-.144-.367-.223-.328-.306-.285-.367a4.718,4.718,0,0,1-.447-.831,6,6,0,0,1-.346-.914l-.263-.954-.486-3.005-.285-4.956,2.575-1.339,3.76-1.5-.731,14.055Zm41.363,11.82-1.1,2.537-.04.122-1.055,1.868-2.622,3.434-.1.083-.083.1L165.183,138l-.061-.022-.749-.022-.166.022h-.285l-.162.022h-.144l-1.34.223-.648.184-.061.04a1.664,1.664,0,0,0-.285.122l-.263.122-.508.324-.429-.162-.083-.022-.342-.122-.187-.04-.364-.122-2.2-.446-1.887-.061-.1.022h-.079l-.187.022-1.1-4.225-.666-3.657c-.108-.691-.227-1.688-.346-2.987l-.2-3.167c-.032-.731-.04-1.836-.04-3.311q.016-1.1.14-3.29l.735-6.867.832-4.164c.144-.569.317-1.123.508-1.666l.529-1.2.061-.1h.022c.05.025.079.014.079-.04l2.381.975,3.7,1.2,11.526,2.743-.306,8.8.407,7.191-1,3.819Zm28.152-12.957-.162.385-.223.324-.486.547-1.4,1.1-2.972,1.645-6.894,2.944-3.98,2.113c-.5.284-.994.59-1.466.914l-.227.144h-.014l-.306.061h-.166l-.083.022h-.364a2.562,2.562,0,0,1-1.138-.306l-.45-.346a3,3,0,0,1-.364-.446l-.245-.367-.187-.407-.04-.061-.465-1.522-.022-.162-.022-.022V121.7l-.022-.079-.832-6.216-.306-6.946.472.1.1.04.854.2h.022l13.4,2.192c.285.068.713.169,1.3.306l3.7,1.116,2.5,1.238c-.014.029,0,.054.022.083l.263.306.18.367a1.189,1.189,0,0,1,.061.367l-.043.385Zm8.54-11.15-.022-.04.022-.122Z" transform="translate(-3.605 -264.256)" fill="#fff"/>
        <circle id="Ellipse_1" data-name="Ellipse 1" cx="69.768" cy="69.768" r="69.768" transform="translate(59.525 -147.249) rotate(-45)" fill="none" stroke="#fff" stroke-miterlimit="10" stroke-width="2.42"/>
      </g>
    </g>
  </g>
</svg>
