<svg xmlns="http://www.w3.org/2000/svg" width="262.136" height="322.485" viewBox="0 0 262.136 322.485">
  <g id="Layer_1-2" transform="translate(3.565 247.628)">
    <path id="Path_9" data-name="Path 9" d="M209.6,103.879v-.022l-.779-2.727-.732-3.849v-.1l-.022-.1-.123-2.994.04-.426v-.1l.022-.1.022-.224v-.1l.022-.1.022-.206.285-1.324.411-1.06a.511.511,0,0,0,0-.447.588.588,0,0,0-.307-.325l-.249-.04-1.955-.022-2.24-4.743-2.99-4.822c-.083-.108-.368-.48-.855-1.118-.108-.133-.429-.5-.959-1.1a13.507,13.507,0,0,0-1-1.017c-.393-.368-.761-.685-1.1-.956-.368-.3-.757-.584-1.161-.855l-.631-.386-.083-.061-1.912-.895a7.929,7.929,0,0,0-1.4-.429.669.669,0,0,0-.509.083.619.619,0,0,0-.285.408.669.669,0,0,0,.2.653h.022l3.03,2.828.1.083.043.061.061.04,3.315,4.072,1.057,1.609.061.123.57.956,1.872,3.849.674,1.832.043.061.224.732.1.245L203.6,95.2l.04.123.162.956.022.083v.061l.613,5.7.061,3.582-1.363-5.576-2.691-6.839-3.012-5.374c-.7-1.06-1.172-1.739-1.385-2.034l-1.876-2.442-3.477-3.91-1.771-1.71-3.87-3.3-.058-.04-.061-.061-.981-.754a.764.764,0,0,0-.592-.162.865.865,0,0,0-.548.325.762.762,0,0,0-.162.487.784.784,0,0,0,.162.487l.022.022,3.787,5.169,5.208,8.408,4.483,9.446,2.586,7.715.014.144.39,1.446-2.4-1.609-3.5-1.526-1.385-.429-.1-.022-.119-.04-2.81-.61-2.893-.325-3.3-2.788-2.175-1.464-3.463-1.793v-.061l-1.872-3.625-1.955-2.766c-.191-.231-.332-.408-.429-.53l-1.829-1.995a.158.158,0,0,0-.263,0,.174.174,0,0,0-.04.224l.75,1.425,1.814,4.436.022.123.368,1.241-2.182-.775-3.03-.592-2.056-.1-.04.206h-.036a.08.08,0,0,1,.036.022l-.036.162.4.022c-.025.014-.022.022.022.022l.083.061L174.8,98.4l.079.061v.04l-.014.061v.04l.014.061-.014,2.28-.061.447v.123l-.144.714-.022.061-.022.04-.014.083-.271.693-.036.083-.04.061-.022.04-2.893.285a2.107,2.107,0,0,0-.346.022l-7.877-.061c-.761-.025-1.331-.054-1.71-.083l-5.861-.245,5.944-7.737a.4.4,0,0,0,.061-.263.389.389,0,0,0-.144-.245.368.368,0,0,0-.346-.04h-.022l-1.14.53-2.929,1.894-2.406,2.2c-.162.148-.393.386-.689.711l-3.217,4.173v-1l.022-.123v-.263l.263-2.139.04-.123.043-.263.592-2.482v-.022a.49.49,0,0,0-.061-.447.555.555,0,0,0-.368-.285.542.542,0,0,0-.667.263,15.985,15.985,0,0,0-.981,1.872,18.45,18.45,0,0,0-.772,1.955l-.75,2.482-1.06,5.861-.307,3.318-.022.123-.162,11.156.162,1.547c.108.664.216,1.241.328,1.731l-8.281-5.923-.123-.123-.061-.04-.2-.224-.123-.1-.079-.123-.206-.245-.606-1.057-.123-.307-.04-.061-.022-.083-.061-.144-.364-1.241-.123-.653a12.335,12.335,0,0,1-.18-1.324l-.083-14.961,2.016-.53c.335-.069.858-.144,1.565-.224l2.363-.184,3.867.224.083.022c.152.029.224-.025.224-.162a.208.208,0,0,0-.119-.224l-.512-.162-.119-.061-3.239-.938-3.437-.61h-.144l-.4-.061-1.995-.04.75-3.744,2.727-16.527a.433.433,0,0,0-.079-.368.613.613,0,0,0-.346-.2.458.458,0,0,0-.548.346l-1.814,5.19L135.367,86.8l-.058.083L134.205,89l-.022-.022-.079-.022-.083-.061-.162-.083-.022-.022h-.022l-.04-.04-.04-.022-.022-.022h-.022l-.2-.2-.083-.061-.022-.04-.1-.1-.123-.162-.04-.083-.043-.04-.022-.061-.18-.346-.04-.1-.022-.083-.079-.2-.022-.04v-.061l-.04-.083-.123-.408c0-.04-.011-.047-.04-.022-.036,0-.047.014-.022.04a1.45,1.45,0,0,0,.061.408l.022.1v.061l.022.04.022.1v1.811l-.022.083V89.7l-.022.184v.083l-.022.083v.184l-.022.083V90.4l-.058.53-.04.162-.083.509-.022.04v.04l-.2.732-.123.307-.022.1v.04l-.18,1.223-.043.123-.022.144-.04.123-.022.144-.18.631-.022.04-.061.184-.04.061-.058.162-.04.04-.022.061-.022.04-.1.144-.022.04-.162.184-.123.083-.043.022-4.458-1.241.53-.876.061-.083.245-.447c.069-.108.05-.191-.058-.245s-.166-.032-.206.022l-1.32,1.241-1.118,1.385.57-3.156,1.118-9.894-.083-5.006a11.393,11.393,0,0,0-.162-1.241.389.389,0,0,0-.144-.245.357.357,0,0,0-.263-.061.335.335,0,0,0-.307.285l-1.565,7.308.022-.04-1.2,4.09-1.118,6.29-.285,4.256.022,2.1-.487.714-.022.022-.876.714c-.31.271-.592.537-.833.794a11.351,11.351,0,0,0-.779.855l-.689.938a10.061,10.061,0,0,0-.57,1.017,8.6,8.6,0,0,0-.447,1.1,6.106,6.106,0,0,0-.307,1.14l-.043.144-.1.754v.144l-.022.061v.386l-.022.141.04.754a10.143,10.143,0,0,0,.144,1.179l.285,1.14c.069.256.2.631.382,1.118l1.021,2.117,1.28,1.955.451.469.058.083.083.061,4.213,3.726.083.04,5.068,3.38,5.6,2.849,5.84,2.258-.022-.022.368.184.061.04.061.022.382.184.123.083.245.123.465.307.123.061,1.872,1.464.408.386-1.017-.794-1.021-.57-.613-.245-1.017-.263h.061l-.328-.1-2.871-1.14-1.814-.916h-.014l-.022-.022a10.9,10.9,0,0,0-1.2-.469l-.653-.162-.368-.022-.4.061a1.3,1.3,0,0,0-.429.162,1.412,1.412,0,0,0-.343.346,1.191,1.191,0,0,0-.188.429,1.253,1.253,0,0,0-.061.386,2.086,2.086,0,0,0,0,.368l.043.346a.827.827,0,0,0,.061.325l.061.307a.511.511,0,0,0,.224.3.788.788,0,0,0,.307.061l.022.141.346,1v.022h.022l1.363,1.85-.022-.061,2.684,5.76.022.061v.022l.022.022v.022l.022.022.2.368,1.771,2.463.39.408.083.1.913.855,1.244.895,1.342.714,1.569.53.119.022.144.04.4.061h.04l-.674.53-.465.509-.307.426-.043.083-.036.022-.271.509-.036.061-.249.57-.321,1.324v.083l-.022.1-.022.307v.022s-.014.029,0,.04l-.061.263v.144l-.061.794.487,1.569.249.548.426.711.083.1.061.1.3.368a.328.328,0,0,1,.043.04l-.1.184-.04.123-.613,1.486-.022.022v.022l-.1.61-.036.123-.022.123-.04.1-.285.938-1.223,2.4-1.161,1.627-.061.1-.321.386-.061.1-.285.368-.263.061-.206.2-.1.083-.757.895-.1.162-.04.04-.447.815-.04.123-.061.123L138,168.937v.144l-.022.123v.671l.1.671.141.509.061.123.18.469.57.956.022.061.166.2.036.04.271.123.119.04.123.061.2.061h.061l.119.04.123.022-.022.061v.245l.022.184v.083l.083.346.036.083.061.162.04.083.022.083.18.307.061.061.04.083.123.123a1.326,1.326,0,0,0,.224.263l.794.671.162.083.144.1.285.162,1.244.57h-.04l1.342.53,1,.184.206.022h.1l.1.022h.57l.162.04.04.022h.04l.022.022.083.022.058.04.04.022.043.04.083.04.04.04.043.022.2.206.061.079.022.022s-.022.007-.022.022a.126.126,0,0,0-.1.061.12.12,0,0,0-.061.1,19.532,19.532,0,0,1-1.259,5.046.113.113,0,0,0,0,.141l.022.022-.328.307-1.342,1.995-.04.1-.061.1-.509,1.1v.022l-.188-.022-.058.022h-.227l-.426.04h-.144l-1.118.162c-.747.123-1.5.263-2.258.426l-9.933,2.525-7.4,1.324h-.144l-.285.04-5.089.368-3.95-.04q-.752-.022-2.258-.141c-.747-.054-1.5-.137-2.258-.245l.043.022-5.151-1h-.1l-8.794-1.118h-.1l-.119-.022-1.753-.123-.1-.022-9.544-.368-.224.022-3.585.022-2.074-.57-4.357-.833-.548-.061-.083-.022h-.1l-2.565-.224a2.712,2.712,0,0,1-.39-.022H66.042c-.487,0-.974.022-1.461.061-.981.069-1.955.17-2.932.307l-.548.061-.18.04-.736.1-4.317.956.04-.022-.224.04-.061.022-3.051.794-.119.04-3.463.693-5.436.693h-.123l-.487.04h-.119l-.061.022H42.7l-2.5.3c-.84.152-1.5.285-1.973.408-.653.162-1.3.346-1.955.548-.559.162-1.187.379-1.89.653q-.9.346-1.854.794c-.57.271-1.165.577-1.793.916-.537.3-1.118.646-1.724,1.039l-.206.141-.119.061-2.994,2.2q-.893.958-1.565,1.771c-.519.653-.985,1.288-1.4,1.912a19.929,19.929,0,0,0-1.183,2.056,22.124,22.124,0,0,0-.981,2.179c-.285.8-.512,1.555-.689,2.258q-.265,1.142-.429,2.341-.119,1-.162,2.381,0,1.039.1,2.363c.094.895.2,1.677.321,2.341q.227,1.239.512,2.28c.119.447.353,1.2.689,2.258.234.693.509,1.418.833,2.179.151.393.462,1.107.938,2.139q.817,1.628,1.057,2.078L24.873,231q.514.9,1.183,1.915a.225.225,0,0,1,.04.061.43.43,0,0,0,.285.2.38.38,0,0,0,.18,0v.022l1.057,3.073,1.71,3.683,1.508,2.647.061.083.022.061.022.022v.022h.022l.1.184.061.061v.022l.083.162.043.04.343.732.285.916a5.658,5.658,0,0,1,.123.772l.043.794-.224,1.731-.04.1-.166.613A10.214,10.214,0,0,1,31,250.55l-.584,1.2L28.762,254.4l-6.168,7.391-3.823,4.033-.022-.022h-.043v-.022h-.022l-.022-.022H18.6l-.022.04v.022l.022.022v.043l.022.036v.022l-.224.188.022-.022-.141.061-.144.036-.285.123c-.123.058-.216.094-.285.123l-.263.119-.123.083-.141.061-.876.592-.224.2-.061.04-.285.263-.043.061-.162.162a9.481,9.481,0,0,0-.757.959,7.425,7.425,0,0,0-.606,1.057,8.512,8.512,0,0,0-.473,1.1c-.133.393-.26.779-.368,1.161l-.263,1.183c-.1.537-.213,1.342-.321,2.4l.079,6.027.123,1.118-5.555,25.75-.04.119-1.648,6.456-.04.036-.206.249-.058.058-.061.083-.022.043-.592.613-.061.079-.083.061-.058.061L4.3,316.7l-.061.061-.083.036-.224.166-.307.162-.058.022-.04.022H3.481l-.083.04H3.376l-.2.1-.18.162-.1.061L1.421,318.9l-.328.408-.04.058-.036.04-.451.674-.061.119-.036.061-.022.061-.061.123-.123.321-.043.083-.1.346v.083l-.04.141v.061l-.022.083v.141l-.022.162v.307l.022.166.022.061v.079l.1.368v.04l.014.04.061.2.166.346.04.061.014.036.022.022.061.123.166.245.014.022.022.04.043.061.53.57h.022l2.828,2.074-.043,9.162a.74.74,0,0,0,.512.75l.592.245.1.022,1.753.53,1.468.271,3.156.141a2.592,2.592,0,0,0,.426-.022,2.455,2.455,0,0,0,.408-.022l3.906-.57,1.425-.346a.866.866,0,0,0,.635-1.057l-.061-.162-.022-.022L12.581,323.9l1.544-9.609.043-.141.9-4.173,6.514-22.273-.1.123.123-.224-.022.1,3.643-4.88.285-.307a7.187,7.187,0,0,1,.53-.631l2.976-3.2,4.108-3.52-.1,2.3.263,2.2.123.53c.094.368.245.84.447,1.425a13.3,13.3,0,0,0,.631,1.342l.166.328.1.141.083.166,1.223,1.648.058.061v.022l.249.224L48.3,323.824l-1.807,1.5-.04.083v.815l.022.1.043.711.245,1.223.119.307.022.079.061.1.043.1.1.18.036.1.123.18.04.04.022.04.079.083.061.079.2.206.043.022.061.036.04.043L48,330l.411.18.123.022.036.022.061.022.224.04h.1l.1.022.649-.022.061-.022.022-.022.732-.346.227-.141.711,4.963a.462.462,0,0,0,.166.263h.022a3.688,3.688,0,0,0,.649.368l.451.18,1.14.307.18.022.162.043,1.425.141h.188a2.24,2.24,0,0,0,.364.022l3.344-.18,3.275-.487a.591.591,0,0,0,.368-.224.61.61,0,0,0,.079-.429l-.022-.123h-.022l-.141-.364-2.384-4.317-3.95-5.27.043.141-.141-.263.1.123-7.369-27.91-.509-1.385c-.188-.62-.317-1.093-.382-1.4a11.89,11.89,0,0,1-.285-1.446l-.04-.18v-.083l-.061-.364v-.083l-.022-.1-.061-1-.022-.083v-1c.014-.462.058-.941.123-1.446l.328-1.591.162-.509.04-.18.53-1.349.938-1.767L51.413,281l1.349-1.508,3.56-2.99,11.52-11.4,4.743-5.4,4.094-5.147,4.415-6.373,5.944,3.585h.022l.061.036,3.239,1.223,6.265,1.793L103.2,255.9l7.189.263,2.482-.1.119-.022h.144l.833-.079h.144l3.38-.512c.855-.119,1.717-.252,2.579-.4l1.223-.18.022.022v.014l.1.307.022.043v.022l.2.674.022.119.043.123.022.119.1.368.613,4.581.53,6.352,1.223,6.918,2.175,7.549.509,1.349-.022.606-.014.1.079,3.524.57,4.393.245,1.1.04.083.368,1.385.083.18.119.39.022.1.224.606.144,1.021v.119l.426,5.782.022.141-.061,16.613-.364,8.974c-.411.328-.833.7-1.284,1.118l-.509.509v.022l-.245.263-.346.509-.224.451v.04l-.022.014v.04H126.1v.043l-.043.1v.061l-.022.04v.079l-.022.1L126,332.4a2.267,2.267,0,0,0,.162.714l.022.079.04.083.022.083.119.224.022.061.043.061.061.119.022.022.307.411a3.655,3.655,0,0,0,.509.447l.061.061.058.04.368.2.022.022h.022l.022.022.083.022.014.022.04.022.491.18.224.981.022.141v.022h.022v.061l.022.022.119.426.188.368-.043-.061.043.1.058.1.022.061.043.04.123.224.162.206.1.079v.022l.04.04a2.643,2.643,0,0,0,.426.263l.447.162.206.04h.061l.036.022h.061l1.836.307h.079l.043.022h.061l.307.04h.083l.079.022.166.022h.162c.3.025.736.05,1.306.083l3.5-.227.548-.1.227-.083h.014l.022-.022.083-.04h.022l.04-.022.04-.043h.022l.04-.036.036-.022.043-.061.04-.04.263-.123.083-.014.04-.022h.04l.058-.022.022-.022h.022l.1-.04.447-.224.53-.411.022-.04.04-.04a2.9,2.9,0,0,0,.509-.649l.166-.368a.052.052,0,0,0,.022-.04v-.022l.022-.022v-.043l.022-.036v-.043l.036-.123v-.061l.022-.04a3.207,3.207,0,0,0,.022-.815l-.162-.732-.328-.815-.1-.188-.022-.014v-.022l-.036-.061-.04-.083-.39-.631-1.183-1.544-.913-.938a7.322,7.322,0,0,0-.779-.631l.022-7.181-.57-21.76.061-.1.18-.4.022-.061.022-.022v-.04l.166-.411.043-.141.058-.123.57-2.4.144-1.284.04-2.727-.166-1.995-.855-4.7L136.373,269.6l-.083-9.421.022-.1v-.119l.043-.451.57-2.46-.061.04.083-.144-.022.1.061-.083.04-.083.2-.18.061-.083.18-.18.855-.7.04-.014.04-.04.079-.04.227-.166,1.767-.876,1-.321.04-.022h.058l.368-.1h.429v.144l6.593,32.79.368,1.32a4.895,4.895,0,0,0,.18.674c.285,1,.548,1.876.8,2.622l.285.815.036.166,1.591,4.047a.193.193,0,0,0-.123.206h.022l.022.04h-.022l.022.036,3.051,32.368-.224.307-.368.368-.224.18-.04.04-.061.043h-.014l-.04.036-.043.022-.061.061-.39.328-.058.083h-.022l-.061.061-.346.465-.061.119-.022.022-.014.043v.04l-.022.022v.022l-.022.04-.123.487.022.328.061.307-.022-.043.083.224.18.328.328.346.162.119.1.043.083.061.162.083.083.022.079.04.083.014.083.043.245.061.162.022.083.022v.043l.061.426v.061l.022.083.022.346.083.4a1.253,1.253,0,0,0,.141.429l.04.119.061.123h.014v.022l.022.043.04.036v.022l.04.04.043.061h.022l.022.043.4.328.39.2.57.18.1.022h.022l.022.022h.036l1.919.39.04.022h.079l.083.022.509.04c.3.025.537.036.714.036a1.751,1.751,0,0,0,.343-.022h.285l.083-.014h.144l.548-.083a4.544,4.544,0,0,0,.732-.188l.368-.141.079-.04h.022l.022-.022.206-.1h.022l.058-.014.083-.061.18-.1.083-.061h.411l.876-.079.036-.022h.04l.061-.022h.04l.083-.022h.014l.04-.022h.043l.206-.061.465-.245.224-.2a.97.97,0,0,0,.2-.285l.04-.083a1.205,1.205,0,0,0,.083-.346l.022-.307-.022-.382-.022-.04V334.7h-.022v-.022l-.548-2.175h-.022v-.061l-.4-1.035v-.022l-.534-.916L165,330.41l-.083-.141h-.022l-.04-.061-.53-.447-.1-.061-.058-.061h-.022l-.022-.022-.022-.04-.451-.364-.058-.04v-.022l-.04-.022-.1-.1-.061-.04-.04-.058-.058-.043-.043-.061-.061-.061-.04-.061-.061-.058-.119-.188-.061-.058-.022-.043-.307-5.277-2.482-23.528v-.022c-.014-.069-.04-.1-.083-.1l.022-.465q.184-2.451.188-4.747l.1-2.525-.426-5.374v-.058l-.022-.061v.04l-.061-.144.061.1-.509-12.682,1.32-18.727-.022.04.022-.123v.083l1.587-3.546.938-1.482.162-.188.061-.1.04-.04.043-.061.75-.75.188-.123a3,3,0,0,1,.382-.224v-.022l.144-.083,1.829-2.24,2.669-4.256,3.073-6.474.022-.083.04-.083.18-.509.04-.184.061-.162,1.28-5.335v-.1l.04-.162.043-.346.022-.1v-.04l.022-.04.061-.53v.04c.321-1.371.7-2.824,1.136-4.357l2.467-7.693.022-.022v-.04l.022-.04.224-.815q.693-2.343,1.2-4.375c.271-1.071.606-2.546,1.017-4.418q.465-2.218.855-4.458c.234-1.41.454-2.9.674-4.48l.855-9.039q.162-2.262.18-4.541.06-2.013.022-4.519l-.224-6.37-.022-.022v-.123l-.307-2.543q-.287-2.078-.779-4.48-.5-2.462-1.057-4.4-.693-2.359-1.425-4.314l.022.022-.061-.184-.036-.285v-.1l-.022-.083v-.1l-.022-.1.022-1.06.058-.386v-.083l.123-.57V153.5l.022-.022.043-.184.794-1.973a.7.7,0,0,0,.772-.022l6.619-4.66,1.219-1.078c.451-.408.84-.779,1.161-1.118l1.118-1.2a13.421,13.421,0,0,0,1.042-1.262,12.392,12.392,0,0,0,.952-1.324q.427-.633.855-1.385l.736-1.464c.245-.57.44-1.078.592-1.526a9.951,9.951,0,0,0,.426-1.587l.263-1.609a15.083,15.083,0,0,0,.043-1.569l-.022.04.022-.083v.04l.674-1.078v-.04l.04-.548v-.04l.022-.061.036-.592a1.732,1.732,0,0,0-.079-.509l-.144-.263a1.029,1.029,0,0,0-.245-.245l-.162-.083-.39-.079h-.2a4.322,4.322,0,0,0-.815.123l-.855.3-.227.1-.119.04h-.022v.022h-.04l-.04.04-7.549,4.029-2.5,1.587-3.971,2.871a.938.938,0,0,0-.206.162l-.058.04h-.022l-3.971,3.564-1.021-.04.39-.447,5.291-5.129,1.266-1.039q1.726-1.342,2.849-2.078l1.955-1.241,4.317-2.24.18-.061.39-.184h.036l4.768-2.1,2.092-1.161a29.331,29.331,0,0,0,3.015-1.995,20.584,20.584,0,0,0,2.442-2.179l.938-1.118,1.237-2.117.548-1.688.1-.671c.04-.014.083-.029.119-.04a.312.312,0,0,0,.227-.368l-.043-.408.465-.794,1.183-2.665.876-2.766.916-4.274a.146.146,0,0,0,0-.144Zm-87.857,3.52-.036.083-.411,1.648-.022-.022-.1-.325v-.061l-.022-.141v-.447l.022-.083v-.061l.022-.162.04-.144.022-.162.083-.263.509-.368.083-.083-.188.592Zm2.976-7.614.141-.631,1.389-4.011.014.04.022.022.022.04.9,1.223.083.083.631.754.079.083.061.083.429.447.141.123.224.245.285.245.043.04.04.022.04.04-1.814.325-2.46.714-.263.123Zm.368,5.212c.4-.216.8-.429,1.2-.631l-1.2.653Zm5.638,11.4c-.206.094-.429.2-.674.307l-.224.083-.1.022-.119.04-.328.061-.061.022h-.061l-.1.022h-.328l-.429-.061-.382-.144-.368-.224-.328-.307-.285-.368a4.728,4.728,0,0,1-.447-.833,6.013,6.013,0,0,1-.346-.916l-.263-.956-.487-3.012-.285-4.967,2.579-1.342,3.766-1.508-.732,14.085ZM172.15,128.24l-1.1,2.543-.04.123-1.057,1.872-2.626,3.441-.1.083-.083.1-1.731,1.731-.061-.022-.75-.022-.166.022h-.285l-.162.022h-.144l-1.342.224-.649.184-.061.04a1.666,1.666,0,0,0-.285.123l-.263.123-.509.325-.429-.162-.083-.022-.343-.123-.188-.04-.364-.123-2.2-.447-1.89-.061-.1.022h-.079l-.188.022-1.1-4.234-.667-3.665c-.108-.693-.227-1.692-.346-2.994l-.2-3.174c-.032-.732-.04-1.84-.04-3.318q.016-1.1.141-3.3l.736-6.882.833-4.173c.144-.57.317-1.125.509-1.67l.53-1.2.061-.1h.022c.051.025.079.014.079-.04l2.384.977,3.7,1.2,11.542,2.748-.307,8.815.408,7.207-1,3.827Zm28.191-12.985-.162.386-.224.325-.487.548-1.4,1.1-2.976,1.648-6.9,2.95-3.986,2.117c-.5.285-1,.592-1.468.916l-.227.144h-.014l-.307.061h-.166l-.083.022h-.364a2.565,2.565,0,0,1-1.14-.307l-.451-.346a3.008,3.008,0,0,1-.364-.447l-.245-.368-.188-.408-.04-.061-.465-1.526-.022-.162-.022-.022v-.022l-.022-.079-.833-6.229-.307-6.961.473.1.1.04.855.2h.022l13.418,2.2c.285.069.714.17,1.3.307l3.7,1.118,2.5,1.241c-.014.029,0,.054.022.083l.263.307.18.368a1.192,1.192,0,0,1,.061.368l-.043.386Zm8.552-11.174-.022-.04.022-.123Z" transform="translate(-3.605 -264.256)" fill="#fff"/>
    <circle id="Ellipse_1" data-name="Ellipse 1" cx="69.768" cy="69.768" r="69.768" transform="translate(59.525 -147.249) rotate(-45)" fill="none" stroke="#fff" stroke-miterlimit="10" stroke-width="2.42"/>
  </g>
</svg>
